solid Untitled-55dc69c1
facet normal -0.7390887531236257 -0.0 -0.6736080574088796
  outer loop
    vertex 4.967263377401902 3.9999999999999996 7.146473531633883
    vertex 5.231033861748882 1.4099832412739487e-15 6.857062209660206
    vertex 4.967263377401902 1.4099832412739487e-15 7.146473531633883
  endloop
endfacet
facet normal -0.7390887531236257 -0.0 -0.6736080574088796
  outer loop
    vertex 5.231033861748882 1.4099832412739487e-15 6.857062209660206
    vertex 4.967263377401902 3.9999999999999996 7.146473531633883
    vertex 5.231033861748882 3.9999999999999996 6.857062209660206
  endloop
endfacet
facet normal 0.9238795325112852 0.0 0.3826834323650937
  outer loop
    vertex 36.70096189432334 3.9999999999999996 5.249999999999999
    vertex 36.551111260566394 3.524958103184872e-16 5.611771432346219
    vertex 36.70096189432334 3.524958103184872e-16 5.249999999999999
  endloop
endfacet
facet normal 0.9238795325112852 0.0 0.3826834323650937
  outer loop
    vertex 36.551111260566394 3.524958103184872e-16 5.611771432346219
    vertex 36.70096189432334 3.9999999999999996 5.249999999999999
    vertex 36.551111260566394 3.9999999999999996 5.611771432346219
  endloop
endfacet
facet normal -0.9989274944881419 0.0 0.04630184397670919
  outer loop
    vertex 5.494637702023495 3.9999999999999996 6.126720715314921
    vertex 5.476506891862355 1.4099832412739487e-15 5.735562108836559
    vertex 5.494637702023495 1.4099832412739487e-15 6.126720715314921
  endloop
endfacet
facet normal -0.9989274944881419 0.0 0.04630184397670919
  outer loop
    vertex 5.476506891862355 1.4099832412739487e-15 5.735562108836559
    vertex 5.494637702023495 3.9999999999999996 6.126720715314921
    vertex 5.476506891862355 3.9999999999999996 5.735562108836559
  endloop
endfacet
facet normal -0.608761429008722 -0.0 -0.7933533402912343
  outer loop
    vertex 39.06066017177983 3.9999999999999996 7.0606601717798245
    vertex 38.75000000000001 3.524958103184872e-16 7.299038105676661
    vertex 38.75000000000001 3.9999999999999996 7.299038105676661
  endloop
endfacet
facet normal -0.608761429008722 -0.0 -0.7933533402912343
  outer loop
    vertex 38.75000000000001 3.524958103184872e-16 7.299038105676661
    vertex 39.06066017177983 3.9999999999999996 7.0606601717798245
    vertex 39.06066017177983 3.524958103184872e-16 7.0606601717798245
  endloop
endfacet
facet normal -0.9768736645608651 -0.0 -0.21381731334816295
  outer loop
    vertex 5.410911422797324 3.9999999999999996 6.5092435144604535
    vertex 5.494637702023495 1.4099832412739487e-15 6.126720715314921
    vertex 5.410911422797324 1.4099832412739487e-15 6.5092435144604535
  endloop
endfacet
facet normal -0.9768736645608651 -0.0 -0.21381731334816295
  outer loop
    vertex 5.494637702023495 1.4099832412739487e-15 6.126720715314921
    vertex 5.410911422797324 3.9999999999999996 6.5092435144604535
    vertex 5.494637702023495 3.9999999999999996 6.126720715314921
  endloop
endfacet
facet normal 0.30326560715198453 0.0 0.9529060664717893
  outer loop
    vertex 3.735562108836559 1.4099832412739487e-15 4.523493108137645
    vertex 3.362424507636709 3.9999999999999996 4.642245422936197
    vertex 3.362424507636709 1.4099832412739487e-15 4.642245422936197
  endloop
endfacet
facet normal 0.30326560715198453 0.0 0.9529060664717893
  outer loop
    vertex 3.362424507636709 3.9999999999999996 4.642245422936197
    vertex 3.735562108836559 1.4099832412739487e-15 4.523493108137645
    vertex 3.735562108836559 3.9999999999999996 4.523493108137645
  endloop
endfacet
facet normal 0.3826834323650951 0.0 -0.9238795325112845
  outer loop
    vertex 37.61177143234622 3.9999999999999996 7.448888739433605
    vertex 37.25000000000001 3.524958103184872e-16 7.299038105676661
    vertex 37.25000000000001 3.9999999999999996 7.299038105676661
  endloop
endfacet
facet normal 0.3826834323650951 0.0 -0.9238795325112845
  outer loop
    vertex 37.25000000000001 3.524958103184872e-16 7.299038105676661
    vertex 37.61177143234622 3.9999999999999996 7.448888739433605
    vertex 37.61177143234622 3.524958103184872e-16 7.448888739433605
  endloop
endfacet
facet normal -0.539562320369963 -0.0 -0.8419456647771171
  outer loop
    vertex 4.967263377401902 3.9999999999999996 7.146473531633883
    vertex 4.6375754923632915 1.4099832412739487e-15 7.357754577063803
    vertex 4.6375754923632915 3.9999999999999996 7.357754577063803
  endloop
endfacet
facet normal -0.539562320369963 -0.0 -0.8419456647771171
  outer loop
    vertex 4.6375754923632915 1.4099832412739487e-15 7.357754577063803
    vertex 4.967263377401902 3.9999999999999996 7.146473531633883
    vertex 4.967263377401902 1.4099832412739487e-15 7.146473531633883
  endloop
endfacet
facet normal -0.8882475087538251 -0.0 -0.4593651741181777
  outer loop
    vertex 5.231033861748882 3.9999999999999996 6.857062209660206
    vertex 5.410911422797324 1.4099832412739487e-15 6.5092435144604535
    vertex 5.231033861748882 1.4099832412739487e-15 6.857062209660206
  endloop
endfacet
facet normal -0.8882475087538251 -0.0 -0.4593651741181777
  outer loop
    vertex 5.410911422797324 1.4099832412739487e-15 6.5092435144604535
    vertex 5.231033861748882 3.9999999999999996 6.857062209660206
    vertex 5.410911422797324 3.9999999999999996 6.5092435144604535
  endloop
endfacet
facet normal 0.9768736645608648 0.0 0.21381731334816464
  outer loop
    vertex 2.5890885772026766 3.9999999999999996 5.4907564855395465
    vertex 2.5053622979765042 1.4099832412739487e-15 5.873279284685079
    vertex 2.5890885772026766 1.4099832412739487e-15 5.4907564855395465
  endloop
endfacet
facet normal 0.9768736645608648 0.0 0.21381731334816464
  outer loop
    vertex 2.5053622979765042 1.4099832412739487e-15 5.873279284685079
    vertex 2.5890885772026766 3.9999999999999996 5.4907564855395465
    vertex 2.5053622979765042 3.9999999999999996 5.873279284685079
  endloop
endfacet
facet normal 0.92387953251129 0.0 -0.3826834323650821
  outer loop
    vertex 36.5511112605664 3.9999999999999996 6.388228567653783
    vertex 36.70096189432334 3.524958103184872e-16 6.750000000000002
    vertex 36.5511112605664 3.524958103184872e-16 6.388228567653783
  endloop
endfacet
facet normal 0.92387953251129 0.0 -0.3826834323650821
  outer loop
    vertex 36.70096189432334 3.524958103184872e-16 6.750000000000002
    vertex 36.5511112605664 3.9999999999999996 6.388228567653783
    vertex 36.70096189432334 3.9999999999999996 6.750000000000002
  endloop
endfacet
facet normal -0.04630184397670927 -0.0 -0.9989274944881418
  outer loop
    vertex 4.264437891163441 3.9999999999999996 7.476506891862355
    vertex 3.8732792846850796 1.4099832412739487e-15 7.494637702023496
    vertex 3.8732792846850796 3.9999999999999996 7.494637702023496
  endloop
endfacet
facet normal -0.04630184397670927 -0.0 -0.9989274944881418
  outer loop
    vertex 3.8732792846850796 1.4099832412739487e-15 7.494637702023496
    vertex 4.264437891163441 3.9999999999999996 7.476506891862355
    vertex 4.264437891163441 1.4099832412739487e-15 7.476506891862355
  endloop
endfacet
facet normal -0.4593651741181777 0.0 0.888247508753825
  outer loop
    vertex 4.857062209660205 1.4099832412739487e-15 4.768966138251118
    vertex 4.5092435144604535 3.9999999999999996 4.589088577202677
    vertex 4.5092435144604535 1.4099832412739487e-15 4.589088577202677
  endloop
endfacet
facet normal -0.4593651741181777 0.0 0.888247508753825
  outer loop
    vertex 4.5092435144604535 3.9999999999999996 4.589088577202677
    vertex 4.857062209660205 1.4099832412739487e-15 4.768966138251118
    vertex 4.857062209660205 3.9999999999999996 4.768966138251118
  endloop
endfacet
facet normal -0.38268343236509006 -0.0 -0.9238795325112867
  outer loop
    vertex 38.75000000000001 3.9999999999999996 7.299038105676661
    vertex 38.38822856765379 3.524958103184872e-16 7.448888739433605
    vertex 38.38822856765379 3.9999999999999996 7.448888739433605
  endloop
endfacet
facet normal -0.38268343236509006 -0.0 -0.9238795325112867
  outer loop
    vertex 38.38822856765379 3.524958103184872e-16 7.448888739433605
    vertex 38.75000000000001 3.9999999999999996 7.299038105676661
    vertex 38.75000000000001 3.524958103184872e-16 7.299038105676661
  endloop
endfacet
facet normal 0.539562320369963 0.0 0.8419456647771171
  outer loop
    vertex 3.362424507636709 1.4099832412739487e-15 4.642245422936197
    vertex 3.032736622598098 3.9999999999999996 4.853526468366117
    vertex 3.032736622598098 1.4099832412739487e-15 4.853526468366117
  endloop
endfacet
facet normal 0.539562320369963 0.0 0.8419456647771171
  outer loop
    vertex 3.032736622598098 3.9999999999999996 4.853526468366117
    vertex 3.362424507636709 1.4099832412739487e-15 4.642245422936197
    vertex 3.362424507636709 3.9999999999999996 4.642245422936197
  endloop
endfacet
facet normal 0.9914448613738095 0.0 -0.1305261922200583
  outer loop
    vertex 36.5 3.9999999999999996 6.0
    vertex 36.5511112605664 3.524958103184872e-16 6.388228567653783
    vertex 36.5 3.524958103184872e-16 6.0
  endloop
endfacet
facet normal 0.9914448613738095 0.0 -0.1305261922200583
  outer loop
    vertex 36.5511112605664 3.524958103184872e-16 6.388228567653783
    vertex 36.5 3.9999999999999996 6.0
    vertex 36.5511112605664 3.9999999999999996 6.388228567653783
  endloop
endfacet
facet normal 0.793353340291235 0.0 -0.6087614290087207
  outer loop
    vertex 36.70096189432334 3.9999999999999996 6.750000000000002
    vertex 36.93933982822018 3.524958103184872e-16 7.0606601717798245
    vertex 36.70096189432334 3.524958103184872e-16 6.750000000000002
  endloop
endfacet
facet normal 0.793353340291235 0.0 -0.6087614290087207
  outer loop
    vertex 36.93933982822018 3.524958103184872e-16 7.0606601717798245
    vertex 36.70096189432334 3.9999999999999996 6.750000000000002
    vertex 36.93933982822018 3.9999999999999996 7.0606601717798245
  endloop
endfacet
facet normal -0.9238795325112906 -0.0 -0.38268343236508084
  outer loop
    vertex 39.299038105676665 3.9999999999999996 6.750000000000002
    vertex 39.448888739433606 3.524958103184872e-16 6.3882285676537816
    vertex 39.299038105676665 3.524958103184872e-16 6.750000000000002
  endloop
endfacet
facet normal -0.9238795325112906 -0.0 -0.38268343236508084
  outer loop
    vertex 39.448888739433606 3.524958103184872e-16 6.3882285676537816
    vertex 39.299038105676665 3.9999999999999996 6.750000000000002
    vertex 39.448888739433606 3.9999999999999996 6.3882285676537816
  endloop
endfacet
facet normal -0.6736080574088806 0.0 0.7390887531236248
  outer loop
    vertex 5.146473531633882 1.4099832412739487e-15 5.032736622598098
    vertex 4.857062209660205 3.9999999999999996 4.768966138251118
    vertex 4.857062209660205 1.4099832412739487e-15 4.768966138251118
  endloop
endfacet
facet normal -0.6736080574088806 0.0 0.7390887531236248
  outer loop
    vertex 4.857062209660205 3.9999999999999996 4.768966138251118
    vertex 5.146473531633882 1.4099832412739487e-15 5.032736622598098
    vertex 5.146473531633882 3.9999999999999996 5.032736622598098
  endloop
endfacet
facet normal 0.7390887531236261 0.0 0.6736080574088792
  outer loop
    vertex 3.032736622598098 3.9999999999999996 4.853526468366117
    vertex 2.768966138251117 1.4099832412739487e-15 5.142937790339795
    vertex 3.032736622598098 1.4099832412739487e-15 4.853526468366117
  endloop
endfacet
facet normal 0.7390887531236261 0.0 0.6736080574088792
  outer loop
    vertex 2.768966138251117 1.4099832412739487e-15 5.142937790339795
    vertex 3.032736622598098 3.9999999999999996 4.853526468366117
    vertex 2.768966138251117 3.9999999999999996 5.142937790339795
  endloop
endfacet
facet normal 0.9914448613738114 0.0 0.1305261922200446
  outer loop
    vertex 36.551111260566394 3.9999999999999996 5.611771432346219
    vertex 36.5 3.524958103184872e-16 6.0
    vertex 36.551111260566394 3.524958103184872e-16 5.611771432346219
  endloop
endfacet
facet normal 0.9914448613738114 0.0 0.1305261922200446
  outer loop
    vertex 36.5 3.524958103184872e-16 6.0
    vertex 36.551111260566394 3.9999999999999996 5.611771432346219
    vertex 36.5 3.9999999999999996 6.0
  endloop
endfacet
facet normal 0.888247508753825 0.0 0.4593651741181777
  outer loop
    vertex 2.768966138251117 3.9999999999999996 5.142937790339795
    vertex 2.5890885772026766 1.4099832412739487e-15 5.4907564855395465
    vertex 2.768966138251117 1.4099832412739487e-15 5.142937790339795
  endloop
endfacet
facet normal 0.888247508753825 0.0 0.4593651741181777
  outer loop
    vertex 2.5890885772026766 1.4099832412739487e-15 5.4907564855395465
    vertex 2.768966138251117 3.9999999999999996 5.142937790339795
    vertex 2.5890885772026766 3.9999999999999996 5.4907564855395465
  endloop
endfacet
facet normal -0.30326560715198514 -0.0 -0.9529060664717891
  outer loop
    vertex 4.6375754923632915 3.9999999999999996 7.357754577063803
    vertex 4.264437891163441 1.4099832412739487e-15 7.476506891862355
    vertex 4.264437891163441 3.9999999999999996 7.476506891862355
  endloop
endfacet
facet normal -0.30326560715198514 -0.0 -0.9529060664717891
  outer loop
    vertex 4.264437891163441 1.4099832412739487e-15 7.476506891862355
    vertex 4.6375754923632915 3.9999999999999996 7.357754577063803
    vertex 4.6375754923632915 1.4099832412739487e-15 7.357754577063803
  endloop
endfacet
facet normal -0.9529060664717892 0.0 0.30326560715198503
  outer loop
    vertex 5.476506891862355 3.9999999999999996 5.735562108836559
    vertex 5.357754577063803 1.4099832412739487e-15 5.362424507636709
    vertex 5.476506891862355 1.4099832412739487e-15 5.735562108836559
  endloop
endfacet
facet normal -0.9529060664717892 0.0 0.30326560715198503
  outer loop
    vertex 5.357754577063803 1.4099832412739487e-15 5.362424507636709
    vertex 5.476506891862355 3.9999999999999996 5.735562108836559
    vertex 5.357754577063803 3.9999999999999996 5.362424507636709
  endloop
endfacet
facet normal 0.7933533402912344 0.0 0.6087614290087215
  outer loop
    vertex 36.93933982822018 3.9999999999999996 4.939339828220178
    vertex 36.70096189432334 3.524958103184872e-16 5.249999999999999
    vertex 36.93933982822018 3.524958103184872e-16 4.939339828220178
  endloop
endfacet
facet normal 0.7933533402912344 0.0 0.6087614290087215
  outer loop
    vertex 36.70096189432334 3.524958103184872e-16 5.249999999999999
    vertex 36.93933982822018 3.9999999999999996 4.939339828220178
    vertex 36.70096189432334 3.9999999999999996 5.249999999999999
  endloop
endfacet
facet normal 0.608761429008715 0.0 -0.7933533402912395
  outer loop
    vertex 37.25000000000001 3.9999999999999996 7.299038105676661
    vertex 36.93933982822018 3.524958103184872e-16 7.0606601717798245
    vertex 36.93933982822018 3.9999999999999996 7.0606601717798245
  endloop
endfacet
facet normal 0.608761429008715 0.0 -0.7933533402912395
  outer loop
    vertex 36.93933982822018 3.524958103184872e-16 7.0606601717798245
    vertex 37.25000000000001 3.9999999999999996 7.299038105676661
    vertex 37.25000000000001 3.524958103184872e-16 7.299038105676661
  endloop
endfacet
facet normal -0.793353340291235 -0.0 -0.6087614290087207
  outer loop
    vertex 39.06066017177983 3.9999999999999996 7.0606601717798245
    vertex 39.299038105676665 3.524958103184872e-16 6.750000000000002
    vertex 39.06066017177983 3.524958103184872e-16 7.0606601717798245
  endloop
endfacet
facet normal -0.793353340291235 -0.0 -0.6087614290087207
  outer loop
    vertex 39.299038105676665 3.524958103184872e-16 6.750000000000002
    vertex 39.06066017177983 3.9999999999999996 7.0606601717798245
    vertex 39.299038105676665 3.9999999999999996 6.750000000000002
  endloop
endfacet
facet normal -0.21381731334816428 0.0 0.9768736645608648
  outer loop
    vertex 4.5092435144604535 1.4099832412739487e-15 4.589088577202677
    vertex 4.12672071531492 3.9999999999999996 4.505362297976505
    vertex 4.12672071531492 1.4099832412739487e-15 4.505362297976505
  endloop
endfacet
facet normal -0.21381731334816428 0.0 0.9768736645608648
  outer loop
    vertex 4.12672071531492 3.9999999999999996 4.505362297976505
    vertex 4.5092435144604535 1.4099832412739487e-15 4.589088577202677
    vertex 4.5092435144604535 3.9999999999999996 4.589088577202677
  endloop
endfacet
facet normal 0.6087614290087242 0.0 0.7933533402912324
  outer loop
    vertex 37.25 3.524958103184872e-16 4.70096189432334
    vertex 36.93933982822018 3.9999999999999996 4.939339828220178
    vertex 36.93933982822018 3.524958103184872e-16 4.939339828220178
  endloop
endfacet
facet normal 0.6087614290087242 0.0 0.7933533402912324
  outer loop
    vertex 36.93933982822018 3.9999999999999996 4.939339828220178
    vertex 37.25 3.524958103184872e-16 4.70096189432334
    vertex 37.25 3.9999999999999996 4.70096189432334
  endloop
endfacet
facet normal 0.13052619222005074 0.0 -0.9914448613738105
  outer loop
    vertex 38.00000000000001 3.9999999999999996 7.5000000000000036
    vertex 37.61177143234622 3.524958103184872e-16 7.448888739433605
    vertex 37.61177143234622 3.9999999999999996 7.448888739433605
  endloop
endfacet
facet normal 0.13052619222005074 0.0 -0.9914448613738105
  outer loop
    vertex 37.61177143234622 3.524958103184872e-16 7.448888739433605
    vertex 38.00000000000001 3.9999999999999996 7.5000000000000036
    vertex 38.00000000000001 3.524958103184872e-16 7.5000000000000036
  endloop
endfacet
facet normal -0.13052619222005074 -0.0 -0.9914448613738105
  outer loop
    vertex 38.38822856765379 3.9999999999999996 7.448888739433605
    vertex 38.00000000000001 3.524958103184872e-16 7.5000000000000036
    vertex 38.00000000000001 3.9999999999999996 7.5000000000000036
  endloop
endfacet
facet normal -0.13052619222005074 -0.0 -0.9914448613738105
  outer loop
    vertex 38.00000000000001 3.524958103184872e-16 7.5000000000000036
    vertex 38.38822856765379 3.9999999999999996 7.448888739433605
    vertex 38.38822856765379 3.524958103184872e-16 7.448888739433605
  endloop
endfacet
facet normal -0.841945664777116 0.0 0.5395623203699648
  outer loop
    vertex 5.357754577063803 3.9999999999999996 5.362424507636709
    vertex 5.146473531633882 1.4099832412739487e-15 5.032736622598098
    vertex 5.357754577063803 1.4099832412739487e-15 5.362424507636709
  endloop
endfacet
facet normal -0.841945664777116 0.0 0.5395623203699648
  outer loop
    vertex 5.146473531633882 1.4099832412739487e-15 5.032736622598098
    vertex 5.357754577063803 3.9999999999999996 5.362424507636709
    vertex 5.146473531633882 3.9999999999999996 5.032736622598098
  endloop
endfacet
facet normal 0.04630184397670927 0.0 0.9989274944881418
  outer loop
    vertex 4.12672071531492 1.4099832412739487e-15 4.505362297976505
    vertex 3.735562108836559 3.9999999999999996 4.523493108137645
    vertex 3.735562108836559 1.4099832412739487e-15 4.523493108137645
  endloop
endfacet
facet normal 0.04630184397670927 0.0 0.9989274944881418
  outer loop
    vertex 3.735562108836559 3.9999999999999996 4.523493108137645
    vertex 4.12672071531492 1.4099832412739487e-15 4.505362297976505
    vertex 4.12672071531492 3.9999999999999996 4.505362297976505
  endloop
endfacet
facet normal -0.9914448613738096 -0.0 -0.13052619222005876
  outer loop
    vertex 39.448888739433606 3.9999999999999996 6.3882285676537816
    vertex 39.50000000000001 3.524958103184872e-16 6.0
    vertex 39.448888739433606 3.524958103184872e-16 6.3882285676537816
  endloop
endfacet
facet normal -0.9914448613738096 -0.0 -0.13052619222005876
  outer loop
    vertex 39.50000000000001 3.524958103184872e-16 6.0
    vertex 39.448888739433606 3.9999999999999996 6.3882285676537816
    vertex 39.50000000000001 3.9999999999999996 6.0
  endloop
endfacet
facet normal 0.38268343236509006 0.0 0.9238795325112867
  outer loop
    vertex 37.61177143234622 3.524958103184872e-16 4.551111260566395
    vertex 37.25 3.9999999999999996 4.70096189432334
    vertex 37.25 3.524958103184872e-16 4.70096189432334
  endloop
endfacet
facet normal 0.38268343236509006 0.0 0.9238795325112867
  outer loop
    vertex 37.25 3.9999999999999996 4.70096189432334
    vertex 37.61177143234622 3.524958103184872e-16 4.551111260566395
    vertex 37.61177143234622 3.9999999999999996 4.551111260566395
  endloop
endfacet
facet normal 0.459365174118177 0.0 -0.8882475087538254
  outer loop
    vertex 3.490756485539547 3.9999999999999996 7.410911422797323
    vertex 3.142937790339795 1.4099832412739487e-15 7.231033861748883
    vertex 3.142937790339795 3.9999999999999996 7.231033861748883
  endloop
endfacet
facet normal 0.459365174118177 0.0 -0.8882475087538254
  outer loop
    vertex 3.142937790339795 1.4099832412739487e-15 7.231033861748883
    vertex 3.490756485539547 3.9999999999999996 7.410911422797323
    vertex 3.490756485539547 1.4099832412739487e-15 7.410911422797323
  endloop
endfacet
facet normal 0.6736080574088811 0.0 -0.7390887531236242
  outer loop
    vertex 3.142937790339795 3.9999999999999996 7.231033861748883
    vertex 2.853526468366117 1.4099832412739487e-15 6.967263377401901
    vertex 2.853526468366117 3.9999999999999996 6.967263377401901
  endloop
endfacet
facet normal 0.6736080574088811 0.0 -0.7390887531236242
  outer loop
    vertex 2.853526468366117 1.4099832412739487e-15 6.967263377401901
    vertex 3.142937790339795 3.9999999999999996 7.231033861748883
    vertex 3.142937790339795 1.4099832412739487e-15 7.231033861748883
  endloop
endfacet
facet normal 0.8419456647771163 0.0 -0.5395623203699641
  outer loop
    vertex 2.6422454229361962 3.9999999999999996 6.637575492363291
    vertex 2.853526468366117 1.4099832412739487e-15 6.967263377401901
    vertex 2.6422454229361962 1.4099832412739487e-15 6.637575492363291
  endloop
endfacet
facet normal 0.8419456647771163 0.0 -0.5395623203699641
  outer loop
    vertex 2.853526468366117 1.4099832412739487e-15 6.967263377401901
    vertex 2.6422454229361962 3.9999999999999996 6.637575492363291
    vertex 2.853526468366117 3.9999999999999996 6.967263377401901
  endloop
endfacet
facet normal -0.9914448613738095 0.0 0.1305261922200583
  outer loop
    vertex 39.50000000000001 3.9999999999999996 6.0
    vertex 39.448888739433606 3.524958103184872e-16 5.611771432346218
    vertex 39.50000000000001 3.524958103184872e-16 6.0
  endloop
endfacet
facet normal -0.9914448613738095 0.0 0.1305261922200583
  outer loop
    vertex 39.448888739433606 3.524958103184872e-16 5.611771432346218
    vertex 39.50000000000001 3.9999999999999996 6.0
    vertex 39.448888739433606 3.9999999999999996 5.611771432346218
  endloop
endfacet
facet normal 0.21381731334816464 0.0 -0.9768736645608648
  outer loop
    vertex 3.8732792846850796 3.9999999999999996 7.494637702023496
    vertex 3.490756485539547 1.4099832412739487e-15 7.410911422797323
    vertex 3.490756485539547 3.9999999999999996 7.410911422797323
  endloop
endfacet
facet normal 0.21381731334816464 0.0 -0.9768736645608648
  outer loop
    vertex 3.490756485539547 1.4099832412739487e-15 7.410911422797323
    vertex 3.8732792846850796 3.9999999999999996 7.494637702023496
    vertex 3.8732792846850796 1.4099832412739487e-15 7.494637702023496
  endloop
endfacet
facet normal -0.3826834323650885 0.0 0.9238795325112873
  outer loop
    vertex 38.75 3.524958103184872e-16 4.700961894323339
    vertex 38.38822856765378 3.9999999999999996 4.551111260566395
    vertex 38.38822856765378 3.524958103184872e-16 4.551111260566395
  endloop
endfacet
facet normal -0.3826834323650885 0.0 0.9238795325112873
  outer loop
    vertex 38.38822856765378 3.9999999999999996 4.551111260566395
    vertex 38.75 3.524958103184872e-16 4.700961894323339
    vertex 38.75 3.9999999999999996 4.700961894323339
  endloop
endfacet
facet normal 0.9989274944881418 0.0 -0.04630184397670821
  outer loop
    vertex 2.5112360003437963 3.9999999999999996 6.0
    vertex 2.5234931081376444 1.4099832412739487e-15 6.26443789116344
    vertex 2.5112360003437963 1.4099832412739487e-15 6.0
  endloop
endfacet
facet normal 0.9989274944881418 0.0 -0.04630184397670821
  outer loop
    vertex 2.5234931081376444 1.4099832412739487e-15 6.26443789116344
    vertex 2.5112360003437963 3.9999999999999996 6.0
    vertex 2.5234931081376444 3.9999999999999996 6.26443789116344
  endloop
endfacet
facet normal -0.6087614290087161 0.0 0.7933533402912386
  outer loop
    vertex 39.06066017177983 3.524958103184872e-16 4.939339828220176
    vertex 38.75 3.9999999999999996 4.700961894323339
    vertex 38.75 3.524958103184872e-16 4.700961894323339
  endloop
endfacet
facet normal -0.6087614290087161 0.0 0.7933533402912386
  outer loop
    vertex 38.75 3.9999999999999996 4.700961894323339
    vertex 39.06066017177983 3.524958103184872e-16 4.939339828220176
    vertex 39.06066017177983 3.9999999999999996 4.939339828220176
  endloop
endfacet
facet normal -0.13052619222005263 0.0 0.9914448613738104
  outer loop
    vertex 38.38822856765378 3.524958103184872e-16 4.551111260566395
    vertex 38.00000000000001 3.9999999999999996 4.499999999999997
    vertex 38.00000000000001 3.524958103184872e-16 4.499999999999997
  endloop
endfacet
facet normal -0.13052619222005263 0.0 0.9914448613738104
  outer loop
    vertex 38.00000000000001 3.9999999999999996 4.499999999999997
    vertex 38.38822856765378 3.524958103184872e-16 4.551111260566395
    vertex 38.38822856765378 3.9999999999999996 4.551111260566395
  endloop
endfacet
facet normal 0.13052619222005074 0.0 0.9914448613738105
  outer loop
    vertex 38.00000000000001 3.524958103184872e-16 4.499999999999997
    vertex 37.61177143234622 3.9999999999999996 4.551111260566395
    vertex 37.61177143234622 3.524958103184872e-16 4.551111260566395
  endloop
endfacet
facet normal 0.13052619222005074 0.0 0.9914448613738105
  outer loop
    vertex 37.61177143234622 3.9999999999999996 4.551111260566395
    vertex 38.00000000000001 3.524958103184872e-16 4.499999999999997
    vertex 38.00000000000001 3.9999999999999996 4.499999999999997
  endloop
endfacet
facet normal 0.9529060664717891 0.0 -0.30326560715198536
  outer loop
    vertex 2.5234931081376444 3.9999999999999996 6.26443789116344
    vertex 2.6422454229361962 1.4099832412739487e-15 6.637575492363291
    vertex 2.5234931081376444 1.4099832412739487e-15 6.26443789116344
  endloop
endfacet
facet normal 0.9529060664717891 0.0 -0.30326560715198536
  outer loop
    vertex 2.6422454229361962 1.4099832412739487e-15 6.637575492363291
    vertex 2.5234931081376444 3.9999999999999996 6.26443789116344
    vertex 2.6422454229361962 3.9999999999999996 6.637575492363291
  endloop
endfacet
facet normal -0.9238795325112902 0.0 0.38268343236508146
  outer loop
    vertex 39.448888739433606 3.9999999999999996 5.611771432346218
    vertex 39.299038105676665 3.524958103184872e-16 5.249999999999998
    vertex 39.448888739433606 3.524958103184872e-16 5.611771432346218
  endloop
endfacet
facet normal -0.9238795325112902 0.0 0.38268343236508146
  outer loop
    vertex 39.299038105676665 3.524958103184872e-16 5.249999999999998
    vertex 39.448888739433606 3.9999999999999996 5.611771432346218
    vertex 39.299038105676665 3.9999999999999996 5.249999999999998
  endloop
endfacet
facet normal -0.7933533402912344 0.0 0.6087614290087215
  outer loop
    vertex 39.299038105676665 3.9999999999999996 5.249999999999998
    vertex 39.06066017177983 3.524958103184872e-16 4.939339828220176
    vertex 39.299038105676665 3.524958103184872e-16 5.249999999999998
  endloop
endfacet
facet normal -0.7933533402912344 0.0 0.6087614290087215
  outer loop
    vertex 39.06066017177983 3.524958103184872e-16 4.939339828220176
    vertex 39.299038105676665 3.9999999999999996 5.249999999999998
    vertex 39.06066017177983 3.9999999999999996 4.939339828220176
  endloop
endfacet
facet normal 0.9989274944881418 0.0 -0.046301843976708695
  outer loop
    vertex 2.5053622979765042 3.9999999999999996 5.873279284685079
    vertex 2.5112360003437963 1.4099832412739487e-15 6.0
    vertex 2.5053622979765042 1.4099832412739487e-15 5.873279284685079
  endloop
endfacet
facet normal 0.9989274944881418 0.0 -0.046301843976708695
  outer loop
    vertex 2.5112360003437963 1.4099832412739487e-15 6.0
    vertex 2.5053622979765042 3.9999999999999996 5.873279284685079
    vertex 2.5112360003437963 3.9999999999999996 6.0
  endloop
endfacet
facet normal 0.0 0.0 -1.0
  outer loop
    vertex 8.442964258242117 16.36464758633278 0.0
    vertex 8.442964258242112 9.635352413667233 0.0
    vertex 8.000000000000002 13.000000000000002 0.0
  endloop
endfacet
facet normal 0.0 0.0 -1.0
  outer loop
    vertex 8.442964258242112 9.635352413667233 0.0
    vertex 8.442964258242117 16.36464758633278 0.0
    vertex 9.741669750802297 6.5000000000000036 0.0
  endloop
endfacet
facet normal 0.0 0.0 -1.0
  outer loop
    vertex 9.741669750802297 6.5000000000000036 0.0
    vertex 8.442964258242117 16.36464758633278 0.0
    vertex 9.741669750802304 19.500000000000007 0.0
  endloop
endfacet
facet normal 0.0 0.0 -1.0
  outer loop
    vertex 11.807611844574888 22.19238815542512 0.0
    vertex 12.306667563398388 15.329371405922693 0.0
    vertex 12.000000000000002 13.000000000000002 0.0
  endloop
endfacet
facet normal 0.0 0.0 -1.0
  outer loop
    vertex 12.306667563398388 15.329371405922693 0.0
    vertex 11.807611844574888 22.19238815542512 0.0
    vertex 13.205771365940057 17.5 0.0
  endloop
endfacet
facet normal 0.0 0.0 -1.0
  outer loop
    vertex 13.205771365940057 17.5 0.0
    vertex 11.807611844574888 22.19238815542512 0.0
    vertex 14.636038969321078 19.36396103067893 0.0
  endloop
endfacet
facet normal 0.0 0.0 -1.0
  outer loop
    vertex 30.192388155425125 22.192388155425107 0.0
    vertex 28.794228634059948 17.499999999999996 0.0
    vertex 27.36396103067893 19.363961030678926 0.0
  endloop
endfacet
facet normal 0.0 0.0 -1.0
  outer loop
    vertex 28.794228634059948 17.499999999999996 0.0
    vertex 30.192388155425125 22.192388155425107 0.0
    vertex 29.693332436601615 15.329371405922684 0.0
  endloop
endfacet
facet normal 0.0 0.0 -1.0
  outer loop
    vertex 29.693332436601615 15.329371405922684 0.0
    vertex 30.192388155425125 22.192388155425107 0.0
    vertex 30.0 12.999999999999998 0.0
  endloop
endfacet
facet normal 0.0 0.0 -1.0
  outer loop
    vertex 32.258330249197705 19.499999999999993 0.0
    vertex 32.2583302491977 6.499999999999992 0.0
    vertex 30.192388155425125 22.192388155425107 0.0
  endloop
endfacet
facet normal 0.0 0.0 -1.0
  outer loop
    vertex 32.2583302491977 6.499999999999992 0.0
    vertex 32.258330249197705 19.499999999999993 0.0
    vertex 33.557035741757886 9.635352413667222 0.0
  endloop
endfacet
facet normal 0.0 0.0 -1.0
  outer loop
    vertex 33.557035741757886 9.635352413667222 0.0
    vertex 32.258330249197705 19.499999999999993 0.0
    vertex 33.55703574175789 16.36464758633276 0.0
  endloop
endfacet
facet normal 0.0 0.0 -1.0
  outer loop
    vertex 33.557035741757886 9.635352413667222 0.0
    vertex 33.55703574175789 16.36464758633276 0.0
    vertex 34.0 12.999999999999993 0.0
  endloop
endfacet
facet normal 0.0 0.0 -1.0
  outer loop
    vertex 5.829993610374849 3.9999999999999996 0.0
    vertex 0.0 0.0 0.0
    vertex 0.0 3.9999999999999996 0.0
  endloop
endfacet
facet normal 0.0 0.0 -1.0
  outer loop
    vertex 0.0 0.0 0.0
    vertex 5.829993610374849 3.9999999999999996 0.0
    vertex 42.0 0.0 0.0
  endloop
endfacet
facet normal 0.0 0.0 -1.0
  outer loop
    vertex 42.0 0.0 0.0
    vertex 5.829993610374849 3.9999999999999996 0.0
    vertex 18.670628594077307 4.306667563398387 0.0
  endloop
endfacet
facet normal 0.0 0.0 -1.0
  outer loop
    vertex 18.670628594077307 4.306667563398387 0.0
    vertex 5.829993610374849 3.9999999999999996 0.0
    vertex 9.741669750802297 6.5000000000000036 0.0
  endloop
endfacet
facet normal 0.0 0.0 -1.0
  outer loop
    vertex 18.670628594077307 4.306667563398387 0.0
    vertex 9.741669750802297 6.5000000000000036 0.0
    vertex 16.499999999999996 5.205771365940055 0.0
  endloop
endfacet
facet normal 0.0 0.0 -1.0
  outer loop
    vertex 16.499999999999996 5.205771365940055 0.0
    vertex 9.741669750802297 6.5000000000000036 0.0
    vertex 14.636038969321074 6.636038969321073 0.0
  endloop
endfacet
facet normal 0.0 0.0 -1.0
  outer loop
    vertex 14.636038969321074 6.636038969321073 0.0
    vertex 9.741669750802297 6.5000000000000036 0.0
    vertex 13.205771365940048 8.500000000000005 0.0
  endloop
endfacet
facet normal 0.0 0.0 -1.0
  outer loop
    vertex 13.205771365940048 8.500000000000005 0.0
    vertex 9.741669750802297 6.5000000000000036 0.0
    vertex 12.306667563398387 10.670628594077316 0.0
  endloop
endfacet
facet normal 0.0 0.0 -1.0
  outer loop
    vertex 12.306667563398387 10.670628594077316 0.0
    vertex 9.741669750802297 6.5000000000000036 0.0
    vertex 9.741669750802304 19.500000000000007 0.0
  endloop
endfacet
facet normal 0.0 0.0 -1.0
  outer loop
    vertex 12.306667563398387 10.670628594077316 0.0
    vertex 9.741669750802304 19.500000000000007 0.0
    vertex 12.000000000000002 13.000000000000002 0.0
  endloop
endfacet
facet normal 0.0 0.0 -1.0
  outer loop
    vertex 12.000000000000002 13.000000000000002 0.0
    vertex 9.741669750802304 19.500000000000007 0.0
    vertex 11.807611844574888 22.19238815542512 0.0
  endloop
endfacet
facet normal 0.0 0.0 -1.0
  outer loop
    vertex 42.0 0.0 0.0
    vertex 18.670628594077307 4.306667563398387 0.0
    vertex 21.0 3.9999999999999996 0.0
  endloop
endfacet
facet normal 0.0 0.0 -1.0
  outer loop
    vertex 42.0 0.0 0.0
    vertex 21.0 3.9999999999999996 0.0
    vertex 23.329371405922686 4.306667563398386 0.0
  endloop
endfacet
facet normal 0.0 0.0 -1.0
  outer loop
    vertex 42.0 0.0 0.0
    vertex 23.329371405922686 4.306667563398386 0.0
    vertex 25.5 5.205771365940052 0.0
  endloop
endfacet
facet normal 0.0 0.0 -1.0
  outer loop
    vertex 42.0 0.0 0.0
    vertex 25.5 5.205771365940052 0.0
    vertex 27.36396103067893 6.636038969321071 0.0
  endloop
endfacet
facet normal 0.0 0.0 -1.0
  outer loop
    vertex 42.0 0.0 0.0
    vertex 27.36396103067893 6.636038969321071 0.0
    vertex 28.794228634059948 8.499999999999998 0.0
  endloop
endfacet
facet normal 0.0 0.0 -1.0
  outer loop
    vertex 42.0 0.0 0.0
    vertex 28.794228634059948 8.499999999999998 0.0
    vertex 32.2583302491977 6.499999999999992 0.0
  endloop
endfacet
facet normal 0.0 0.0 -1.0
  outer loop
    vertex 32.2583302491977 6.499999999999992 0.0
    vertex 28.794228634059948 8.499999999999998 0.0
    vertex 29.693332436601615 10.67062859407731 0.0
  endloop
endfacet
facet normal 0.0 0.0 -1.0
  outer loop
    vertex 32.2583302491977 6.499999999999992 0.0
    vertex 29.693332436601615 10.67062859407731 0.0
    vertex 30.0 12.999999999999998 0.0
  endloop
endfacet
facet normal 0.0 0.0 -1.0
  outer loop
    vertex 32.2583302491977 6.499999999999992 0.0
    vertex 30.0 12.999999999999998 0.0
    vertex 30.192388155425125 22.192388155425107 0.0
  endloop
endfacet
facet normal 0.0 0.0 -1.0
  outer loop
    vertex 42.0 0.0 0.0
    vertex 32.2583302491977 6.499999999999992 0.0
    vertex 36.17000638962515 3.9999999999999996 0.0
  endloop
endfacet
facet normal 0.0 0.0 -1.0
  outer loop
    vertex 42.0 0.0 0.0
    vertex 36.17000638962515 3.9999999999999996 0.0
    vertex 42.0 3.9999999999999996 0.0
  endloop
endfacet
facet normal -0.9238795325112866 -0.3826834323650899 -0.0
  outer loop
    vertex 8.442964258242112 9.635352413667233 12.0
    vertex 9.741669750802297 6.5000000000000036 0.0
    vertex 9.741669750802297 6.5000000000000036 12.0
  endloop
endfacet
facet normal -0.9238795325112866 -0.3826834323650899 -0.0
  outer loop
    vertex 9.741669750802297 6.5000000000000036 0.0
    vertex 8.442964258242112 9.635352413667233 12.0
    vertex 8.442964258242112 9.635352413667233 0.0
  endloop
endfacet
facet normal 0.6087614290087211 0.7933533402912347 0.0
  outer loop
    vertex 14.636038969321074 6.636038969321073 12.0
    vertex 16.499999999999996 5.205771365940055 0.0
    vertex 14.636038969321074 6.636038969321073 0.0
  endloop
endfacet
facet normal 0.6087614290087211 0.7933533402912347 0.0
  outer loop
    vertex 16.499999999999996 5.205771365940055 0.0
    vertex 14.636038969321074 6.636038969321073 12.0
    vertex 16.499999999999996 5.205771365940055 12.0
  endloop
endfacet
facet normal -0.0 -1.0 -0.0
  outer loop
    vertex 37.61177143234622 3.524958103184872e-16 4.551111260566395
    vertex 4.12672071531492 1.4099832412739487e-15 4.505362297976505
    vertex 38.00000000000001 3.524958103184872e-16 4.499999999999997
  endloop
endfacet
facet normal -0.0 -1.0 -0.0
  outer loop
    vertex 4.12672071531492 1.4099832412739487e-15 4.505362297976505
    vertex 37.61177143234622 3.524958103184872e-16 4.551111260566395
    vertex 4.5092435144604535 1.4099832412739487e-15 4.589088577202677
  endloop
endfacet
facet normal -0.0 -1.0 -0.0
  outer loop
    vertex 4.5092435144604535 1.4099832412739487e-15 4.589088577202677
    vertex 37.61177143234622 3.524958103184872e-16 4.551111260566395
    vertex 37.25 3.524958103184872e-16 4.70096189432334
  endloop
endfacet
facet normal -0.0 -1.0 -0.0
  outer loop
    vertex 4.5092435144604535 1.4099832412739487e-15 4.589088577202677
    vertex 37.25 3.524958103184872e-16 4.70096189432334
    vertex 4.857062209660205 1.4099832412739487e-15 4.768966138251118
  endloop
endfacet
facet normal -0.0 -1.0 -0.0
  outer loop
    vertex 4.857062209660205 1.4099832412739487e-15 4.768966138251118
    vertex 37.25 3.524958103184872e-16 4.70096189432334
    vertex 36.93933982822018 3.524958103184872e-16 4.939339828220178
  endloop
endfacet
facet normal -0.0 -1.0 -0.0
  outer loop
    vertex 4.857062209660205 1.4099832412739487e-15 4.768966138251118
    vertex 36.93933982822018 3.524958103184872e-16 4.939339828220178
    vertex 5.146473531633882 1.4099832412739487e-15 5.032736622598098
  endloop
endfacet
facet normal -0.0 -1.0 -0.0
  outer loop
    vertex 5.146473531633882 1.4099832412739487e-15 5.032736622598098
    vertex 36.93933982822018 3.524958103184872e-16 4.939339828220178
    vertex 36.70096189432334 3.524958103184872e-16 5.249999999999999
  endloop
endfacet
facet normal -0.0 -1.0 -0.0
  outer loop
    vertex 5.146473531633882 1.4099832412739487e-15 5.032736622598098
    vertex 36.70096189432334 3.524958103184872e-16 5.249999999999999
    vertex 5.357754577063803 1.4099832412739487e-15 5.362424507636709
  endloop
endfacet
facet normal -0.0 -1.0 -0.0
  outer loop
    vertex 5.357754577063803 1.4099832412739487e-15 5.362424507636709
    vertex 36.70096189432334 3.524958103184872e-16 5.249999999999999
    vertex 36.551111260566394 3.524958103184872e-16 5.611771432346219
  endloop
endfacet
facet normal -0.0 -1.0 -0.0
  outer loop
    vertex 5.357754577063803 1.4099832412739487e-15 5.362424507636709
    vertex 36.551111260566394 3.524958103184872e-16 5.611771432346219
    vertex 5.476506891862355 1.4099832412739487e-15 5.735562108836559
  endloop
endfacet
facet normal -0.0 -1.0 -0.0
  outer loop
    vertex 5.476506891862355 1.4099832412739487e-15 5.735562108836559
    vertex 36.551111260566394 3.524958103184872e-16 5.611771432346219
    vertex 36.5 3.524958103184872e-16 6.0
  endloop
endfacet
facet normal -0.0 -1.0 -0.0
  outer loop
    vertex 5.476506891862355 1.4099832412739487e-15 5.735562108836559
    vertex 36.5 3.524958103184872e-16 6.0
    vertex 5.494637702023495 1.4099832412739487e-15 6.126720715314921
  endloop
endfacet
facet normal -0.0 -1.0 -0.0
  outer loop
    vertex 5.494637702023495 1.4099832412739487e-15 6.126720715314921
    vertex 36.5 3.524958103184872e-16 6.0
    vertex 36.5511112605664 3.524958103184872e-16 6.388228567653783
  endloop
endfacet
facet normal -0.0 -1.0 -0.0
  outer loop
    vertex 5.494637702023495 1.4099832412739487e-15 6.126720715314921
    vertex 36.5511112605664 3.524958103184872e-16 6.388228567653783
    vertex 5.410911422797324 1.4099832412739487e-15 6.5092435144604535
  endloop
endfacet
facet normal -0.0 -1.0 -0.0
  outer loop
    vertex 5.410911422797324 1.4099832412739487e-15 6.5092435144604535
    vertex 36.5511112605664 3.524958103184872e-16 6.388228567653783
    vertex 36.70096189432334 3.524958103184872e-16 6.750000000000002
  endloop
endfacet
facet normal -0.0 -1.0 -0.0
  outer loop
    vertex 5.410911422797324 1.4099832412739487e-15 6.5092435144604535
    vertex 36.70096189432334 3.524958103184872e-16 6.750000000000002
    vertex 5.231033861748882 1.4099832412739487e-15 6.857062209660206
  endloop
endfacet
facet normal -0.0 -1.0 -0.0
  outer loop
    vertex 5.231033861748882 1.4099832412739487e-15 6.857062209660206
    vertex 36.70096189432334 3.524958103184872e-16 6.750000000000002
    vertex 36.93933982822018 3.524958103184872e-16 7.0606601717798245
  endloop
endfacet
facet normal -0.0 -1.0 -0.0
  outer loop
    vertex 5.231033861748882 1.4099832412739487e-15 6.857062209660206
    vertex 36.93933982822018 3.524958103184872e-16 7.0606601717798245
    vertex 4.967263377401902 1.4099832412739487e-15 7.146473531633883
  endloop
endfacet
facet normal -0.0 -1.0 -0.0
  outer loop
    vertex 4.967263377401902 1.4099832412739487e-15 7.146473531633883
    vertex 36.93933982822018 3.524958103184872e-16 7.0606601717798245
    vertex 37.25000000000001 3.524958103184872e-16 7.299038105676661
  endloop
endfacet
facet normal -0.0 -1.0 -0.0
  outer loop
    vertex 4.967263377401902 1.4099832412739487e-15 7.146473531633883
    vertex 37.25000000000001 3.524958103184872e-16 7.299038105676661
    vertex 4.6375754923632915 1.4099832412739487e-15 7.357754577063803
  endloop
endfacet
facet normal -0.0 -1.0 -0.0
  outer loop
    vertex 4.6375754923632915 1.4099832412739487e-15 7.357754577063803
    vertex 37.25000000000001 3.524958103184872e-16 7.299038105676661
    vertex 37.61177143234622 3.524958103184872e-16 7.448888739433605
  endloop
endfacet
facet normal -0.0 -1.0 -0.0
  outer loop
    vertex 4.6375754923632915 1.4099832412739487e-15 7.357754577063803
    vertex 37.61177143234622 3.524958103184872e-16 7.448888739433605
    vertex 4.264437891163441 1.4099832412739487e-15 7.476506891862355
  endloop
endfacet
facet normal -0.0 -1.0 -0.0
  outer loop
    vertex 4.264437891163441 1.4099832412739487e-15 7.476506891862355
    vertex 37.61177143234622 3.524958103184872e-16 7.448888739433605
    vertex 38.00000000000001 3.524958103184872e-16 7.5000000000000036
  endloop
endfacet
facet normal -0.0 -1.0 -0.0
  outer loop
    vertex 4.264437891163441 1.4099832412739487e-15 7.476506891862355
    vertex 38.00000000000001 3.524958103184872e-16 7.5000000000000036
    vertex 3.8732792846850796 1.4099832412739487e-15 7.494637702023496
  endloop
endfacet
facet normal -0.0 -1.0 -0.0
  outer loop
    vertex 42.0 0.0 0.0
    vertex 38.00000000000001 3.524958103184872e-16 4.499999999999997
    vertex 0.0 0.0 0.0
  endloop
endfacet
facet normal -0.0 -1.0 -0.0
  outer loop
    vertex 38.00000000000001 3.524958103184872e-16 4.499999999999997
    vertex 42.0 0.0 0.0
    vertex 38.38822856765378 3.524958103184872e-16 4.551111260566395
  endloop
endfacet
facet normal -0.0 -1.0 -0.0
  outer loop
    vertex 38.38822856765378 3.524958103184872e-16 4.551111260566395
    vertex 42.0 0.0 0.0
    vertex 38.75 3.524958103184872e-16 4.700961894323339
  endloop
endfacet
facet normal -0.0 -1.0 -0.0
  outer loop
    vertex 38.75 3.524958103184872e-16 4.700961894323339
    vertex 42.0 0.0 0.0
    vertex 39.06066017177983 3.524958103184872e-16 4.939339828220176
  endloop
endfacet
facet normal -0.0 -1.0 -0.0
  outer loop
    vertex 39.06066017177983 3.524958103184872e-16 4.939339828220176
    vertex 42.0 0.0 0.0
    vertex 39.299038105676665 3.524958103184872e-16 5.249999999999998
  endloop
endfacet
facet normal -0.0 -1.0 -0.0
  outer loop
    vertex 39.299038105676665 3.524958103184872e-16 5.249999999999998
    vertex 42.0 0.0 0.0
    vertex 39.448888739433606 3.524958103184872e-16 5.611771432346218
  endloop
endfacet
facet normal -0.0 -1.0 -0.0
  outer loop
    vertex 39.448888739433606 3.524958103184872e-16 5.611771432346218
    vertex 42.0 0.0 0.0
    vertex 42.0 0.0 12.0
  endloop
endfacet
facet normal -0.0 -1.0 -0.0
  outer loop
    vertex 39.448888739433606 3.524958103184872e-16 5.611771432346218
    vertex 42.0 0.0 12.0
    vertex 39.50000000000001 3.524958103184872e-16 6.0
  endloop
endfacet
facet normal -0.0 -1.0 -0.0
  outer loop
    vertex 39.50000000000001 3.524958103184872e-16 6.0
    vertex 42.0 0.0 12.0
    vertex 39.448888739433606 3.524958103184872e-16 6.3882285676537816
  endloop
endfacet
facet normal -0.0 -1.0 -0.0
  outer loop
    vertex 39.448888739433606 3.524958103184872e-16 6.3882285676537816
    vertex 42.0 0.0 12.0
    vertex 39.299038105676665 3.524958103184872e-16 6.750000000000002
  endloop
endfacet
facet normal -0.0 -1.0 -0.0
  outer loop
    vertex 39.299038105676665 3.524958103184872e-16 6.750000000000002
    vertex 42.0 0.0 12.0
    vertex 39.06066017177983 3.524958103184872e-16 7.0606601717798245
  endloop
endfacet
facet normal -0.0 -1.0 -0.0
  outer loop
    vertex 39.06066017177983 3.524958103184872e-16 7.0606601717798245
    vertex 42.0 0.0 12.0
    vertex 38.75000000000001 3.524958103184872e-16 7.299038105676661
  endloop
endfacet
facet normal -0.0 -1.0 -0.0
  outer loop
    vertex 38.75000000000001 3.524958103184872e-16 7.299038105676661
    vertex 42.0 0.0 12.0
    vertex 38.38822856765379 3.524958103184872e-16 7.448888739433605
  endloop
endfacet
facet normal -0.0 -1.0 -0.0
  outer loop
    vertex 38.38822856765379 3.524958103184872e-16 7.448888739433605
    vertex 42.0 0.0 12.0
    vertex 38.00000000000001 3.524958103184872e-16 7.5000000000000036
  endloop
endfacet
facet normal -0.0 -1.0 -0.0
  outer loop
    vertex 0.0 0.0 0.0
    vertex 2.5890885772026766 1.4099832412739487e-15 5.4907564855395465
    vertex 0.0 0.0 12.0
  endloop
endfacet
facet normal -0.0 -1.0 -0.0
  outer loop
    vertex 2.5890885772026766 1.4099832412739487e-15 5.4907564855395465
    vertex 0.0 0.0 0.0
    vertex 2.768966138251117 1.4099832412739487e-15 5.142937790339795
  endloop
endfacet
facet normal -0.0 -1.0 -0.0
  outer loop
    vertex 2.768966138251117 1.4099832412739487e-15 5.142937790339795
    vertex 0.0 0.0 0.0
    vertex 3.032736622598098 1.4099832412739487e-15 4.853526468366117
  endloop
endfacet
facet normal -0.0 -1.0 -0.0
  outer loop
    vertex 3.032736622598098 1.4099832412739487e-15 4.853526468366117
    vertex 0.0 0.0 0.0
    vertex 3.362424507636709 1.4099832412739487e-15 4.642245422936197
  endloop
endfacet
facet normal -0.0 -1.0 -0.0
  outer loop
    vertex 3.362424507636709 1.4099832412739487e-15 4.642245422936197
    vertex 0.0 0.0 0.0
    vertex 3.735562108836559 1.4099832412739487e-15 4.523493108137645
  endloop
endfacet
facet normal -0.0 -1.0 -0.0
  outer loop
    vertex 3.735562108836559 1.4099832412739487e-15 4.523493108137645
    vertex 0.0 0.0 0.0
    vertex 4.12672071531492 1.4099832412739487e-15 4.505362297976505
  endloop
endfacet
facet normal -0.0 -1.0 -0.0
  outer loop
    vertex 4.12672071531492 1.4099832412739487e-15 4.505362297976505
    vertex 0.0 0.0 0.0
    vertex 38.00000000000001 3.524958103184872e-16 4.499999999999997
  endloop
endfacet
facet normal -0.0 -1.0 -0.0
  outer loop
    vertex 0.0 0.0 12.0
    vertex 2.5890885772026766 1.4099832412739487e-15 5.4907564855395465
    vertex 2.5053622979765042 1.4099832412739487e-15 5.873279284685079
  endloop
endfacet
facet normal -0.0 -1.0 -0.0
  outer loop
    vertex 0.0 0.0 12.0
    vertex 2.5053622979765042 1.4099832412739487e-15 5.873279284685079
    vertex 2.5112360003437963 1.4099832412739487e-15 6.0
  endloop
endfacet
facet normal -0.0 -1.0 -0.0
  outer loop
    vertex 0.0 0.0 12.0
    vertex 2.5112360003437963 1.4099832412739487e-15 6.0
    vertex 2.5234931081376444 1.4099832412739487e-15 6.26443789116344
  endloop
endfacet
facet normal -0.0 -1.0 -0.0
  outer loop
    vertex 0.0 0.0 12.0
    vertex 2.5234931081376444 1.4099832412739487e-15 6.26443789116344
    vertex 2.6422454229361962 1.4099832412739487e-15 6.637575492363291
  endloop
endfacet
facet normal -0.0 -1.0 -0.0
  outer loop
    vertex 0.0 0.0 12.0
    vertex 2.6422454229361962 1.4099832412739487e-15 6.637575492363291
    vertex 2.853526468366117 1.4099832412739487e-15 6.967263377401901
  endloop
endfacet
facet normal -0.0 -1.0 -0.0
  outer loop
    vertex 0.0 0.0 12.0
    vertex 2.853526468366117 1.4099832412739487e-15 6.967263377401901
    vertex 3.142937790339795 1.4099832412739487e-15 7.231033861748883
  endloop
endfacet
facet normal -0.0 -1.0 -0.0
  outer loop
    vertex 0.0 0.0 12.0
    vertex 3.142937790339795 1.4099832412739487e-15 7.231033861748883
    vertex 3.490756485539547 1.4099832412739487e-15 7.410911422797323
  endloop
endfacet
facet normal -0.0 -1.0 -0.0
  outer loop
    vertex 0.0 0.0 12.0
    vertex 3.490756485539547 1.4099832412739487e-15 7.410911422797323
    vertex 3.8732792846850796 1.4099832412739487e-15 7.494637702023496
  endloop
endfacet
facet normal -0.0 -1.0 -0.0
  outer loop
    vertex 0.0 0.0 12.0
    vertex 3.8732792846850796 1.4099832412739487e-15 7.494637702023496
    vertex 38.00000000000001 3.524958103184872e-16 7.5000000000000036
  endloop
endfacet
facet normal -0.0 -1.0 -0.0
  outer loop
    vertex 0.0 0.0 12.0
    vertex 38.00000000000001 3.524958103184872e-16 7.5000000000000036
    vertex 42.0 0.0 12.0
  endloop
endfacet
facet normal 0.5385229014094529 0.8426108738068507 0.0
  outer loop
    vertex 32.2583302491977 6.499999999999992 12.0
    vertex 36.17000638962515 3.9999999999999996 0.0
    vertex 32.2583302491977 6.499999999999992 0.0
  endloop
endfacet
facet normal 0.5385229014094529 0.8426108738068507 0.0
  outer loop
    vertex 36.17000638962515 3.9999999999999996 0.0
    vertex 32.2583302491977 6.499999999999992 12.0
    vertex 36.17000638962515 3.9999999999999996 12.0
  endloop
endfacet
facet normal -0.3826834323650897 0.9238795325112867 0.0
  outer loop
    vertex 23.329371405922686 4.306667563398386 12.0
    vertex 25.5 5.205771365940052 0.0
    vertex 23.329371405922686 4.306667563398386 0.0
  endloop
endfacet
facet normal -0.3826834323650897 0.9238795325112867 0.0
  outer loop
    vertex 25.5 5.205771365940052 0.0
    vertex 23.329371405922686 4.306667563398386 12.0
    vertex 25.5 5.205771365940052 12.0
  endloop
endfacet
facet normal 0.7933533402912354 -0.6087614290087203 0.0
  outer loop
    vertex 14.636038969321078 19.36396103067893 0.0
    vertex 13.205771365940057 17.5 12.0
    vertex 13.205771365940057 17.5 0.0
  endloop
endfacet
facet normal 0.7933533402912354 -0.6087614290087203 0.0
  outer loop
    vertex 13.205771365940057 17.5 12.0
    vertex 14.636038969321078 19.36396103067893 0.0
    vertex 14.636038969321078 19.36396103067893 12.0
  endloop
endfacet
facet normal -0.7933533402912353 0.6087614290087208 0.0
  outer loop
    vertex 28.794228634059948 8.499999999999998 12.0
    vertex 27.36396103067893 6.636038969321071 0.0
    vertex 27.36396103067893 6.636038969321071 12.0
  endloop
endfacet
facet normal -0.7933533402912353 0.6087614290087208 0.0
  outer loop
    vertex 27.36396103067893 6.636038969321071 0.0
    vertex 28.794228634059948 8.499999999999998 12.0
    vertex 28.794228634059948 8.499999999999998 0.0
  endloop
endfacet
facet normal -0.9238795325112865 0.3826834323650903 0.0
  outer loop
    vertex 29.693332436601615 10.67062859407731 12.0
    vertex 28.794228634059948 8.499999999999998 0.0
    vertex 28.794228634059948 8.499999999999998 12.0
  endloop
endfacet
facet normal -0.9238795325112865 0.3826834323650903 0.0
  outer loop
    vertex 28.794228634059948 8.499999999999998 0.0
    vertex 29.693332436601615 10.67062859407731 12.0
    vertex 29.693332436601615 10.67062859407731 0.0
  endloop
endfacet
facet normal -0.9914448613738105 0.13052619222005168 0.0
  outer loop
    vertex 30.0 12.999999999999998 12.0
    vertex 29.693332436601615 10.67062859407731 0.0
    vertex 29.693332436601615 10.67062859407731 12.0
  endloop
endfacet
facet normal -0.9914448613738105 0.13052619222005168 0.0
  outer loop
    vertex 29.693332436601615 10.67062859407731 0.0
    vertex 30.0 12.999999999999998 12.0
    vertex 30.0 12.999999999999998 0.0
  endloop
endfacet
facet normal -1.0 0.0 0.0
  outer loop
    vertex 0.0 3.9999999999999996 12.0
    vertex 0.0 0.0 0.0
    vertex 0.0 0.0 12.0
  endloop
endfacet
facet normal -1.0 0.0 0.0
  outer loop
    vertex 0.0 0.0 0.0
    vertex 0.0 3.9999999999999996 12.0
    vertex 0.0 3.9999999999999996 0.0
  endloop
endfacet
facet normal -0.9914448613738105 -0.13052619222005185 -0.0
  outer loop
    vertex 29.693332436601615 15.329371405922684 12.0
    vertex 30.0 12.999999999999998 0.0
    vertex 30.0 12.999999999999998 12.0
  endloop
endfacet
facet normal -0.9914448613738105 -0.13052619222005185 -0.0
  outer loop
    vertex 30.0 12.999999999999998 0.0
    vertex 29.693332436601615 15.329371405922684 12.0
    vertex 29.693332436601615 15.329371405922684 0.0
  endloop
endfacet
facet normal 0.7071067811865474 0.7071067811865477 0.0
  outer loop
    vertex 11.807611844574888 22.19238815542512 12.0
    vertex 14.636038969321078 19.36396103067893 0.0
    vertex 11.807611844574888 22.19238815542512 0.0
  endloop
endfacet
facet normal 0.7071067811865474 0.7071067811865477 0.0
  outer loop
    vertex 14.636038969321078 19.36396103067893 0.0
    vertex 11.807611844574888 22.19238815542512 12.0
    vertex 14.636038969321078 19.36396103067893 12.0
  endloop
endfacet
facet normal 0.9914448613738104 -0.1305261922200521 0.0
  outer loop
    vertex 12.306667563398388 15.329371405922693 0.0
    vertex 12.000000000000002 13.000000000000002 12.0
    vertex 12.000000000000002 13.000000000000002 0.0
  endloop
endfacet
facet normal 0.9914448613738104 -0.1305261922200521 0.0
  outer loop
    vertex 12.000000000000002 13.000000000000002 12.0
    vertex 12.306667563398388 15.329371405922693 0.0
    vertex 12.306667563398388 15.329371405922693 12.0
  endloop
endfacet
facet normal -0.9914448613738104 0.1305261922200522 0.0
  outer loop
    vertex 8.442964258242117 16.36464758633278 12.0
    vertex 8.000000000000002 13.000000000000002 0.0
    vertex 8.000000000000002 13.000000000000002 12.0
  endloop
endfacet
facet normal -0.9914448613738104 0.1305261922200522 0.0
  outer loop
    vertex 8.000000000000002 13.000000000000002 0.0
    vertex 8.442964258242117 16.36464758633278 12.0
    vertex 8.442964258242117 16.36464758633278 0.0
  endloop
endfacet
facet normal -0.793353340291235 0.608761429008721 0.0
  outer loop
    vertex 11.807611844574888 22.19238815542512 12.0
    vertex 9.741669750802304 19.500000000000007 0.0
    vertex 9.741669750802304 19.500000000000007 12.0
  endloop
endfacet
facet normal -0.793353340291235 0.608761429008721 0.0
  outer loop
    vertex 9.741669750802304 19.500000000000007 0.0
    vertex 11.807611844574888 22.19238815542512 12.0
    vertex 11.807611844574888 22.19238815542512 0.0
  endloop
endfacet
facet normal -0.9238795325112864 0.3826834323650905 0.0
  outer loop
    vertex 9.741669750802304 19.500000000000007 12.0
    vertex 8.442964258242117 16.36464758633278 0.0
    vertex 8.442964258242117 16.36464758633278 12.0
  endloop
endfacet
facet normal -0.9238795325112864 0.3826834323650905 0.0
  outer loop
    vertex 8.442964258242117 16.36464758633278 0.0
    vertex 9.741669750802304 19.500000000000007 12.0
    vertex 9.741669750802304 19.500000000000007 0.0
  endloop
endfacet
facet normal 0.9238795325112873 0.38268343236508845 0.0
  outer loop
    vertex 12.306667563398387 10.670628594077316 0.0
    vertex 13.205771365940048 8.500000000000005 12.0
    vertex 13.205771365940048 8.500000000000005 0.0
  endloop
endfacet
facet normal 0.9238795325112873 0.38268343236508845 0.0
  outer loop
    vertex 13.205771365940048 8.500000000000005 12.0
    vertex 12.306667563398387 10.670628594077316 0.0
    vertex 12.306667563398387 10.670628594077316 12.0
  endloop
endfacet
facet normal 1.0 0.0 0.0
  outer loop
    vertex 42.0 3.9999999999999996 0.0
    vertex 42.0 0.0 12.0
    vertex 42.0 0.0 0.0
  endloop
endfacet
facet normal 1.0 0.0 0.0
  outer loop
    vertex 42.0 0.0 12.0
    vertex 42.0 3.9999999999999996 0.0
    vertex 42.0 3.9999999999999996 12.0
  endloop
endfacet
facet normal 0.9238795325112865 -0.3826834323650908 0.0
  outer loop
    vertex 13.205771365940057 17.5 0.0
    vertex 12.306667563398388 15.329371405922693 12.0
    vertex 12.306667563398388 15.329371405922693 0.0
  endloop
endfacet
facet normal 0.9238795325112865 -0.3826834323650908 0.0
  outer loop
    vertex 12.306667563398388 15.329371405922693 12.0
    vertex 13.205771365940057 17.5 0.0
    vertex 13.205771365940057 17.5 12.0
  endloop
endfacet
facet normal 0.7933533402912348 0.6087614290087213 0.0
  outer loop
    vertex 13.205771365940048 8.500000000000005 0.0
    vertex 14.636038969321074 6.636038969321073 12.0
    vertex 14.636038969321074 6.636038969321073 0.0
  endloop
endfacet
facet normal 0.7933533402912348 0.6087614290087213 0.0
  outer loop
    vertex 14.636038969321074 6.636038969321073 12.0
    vertex 13.205771365940048 8.500000000000005 0.0
    vertex 13.205771365940048 8.500000000000005 12.0
  endloop
endfacet
facet normal 0.0 1.0 0.0
  outer loop
    vertex 36.17000638962515 3.9999999999999996 0.0
    vertex 36.93933982822018 3.9999999999999996 4.939339828220178
    vertex 42.0 3.9999999999999996 0.0
  endloop
endfacet
facet normal 0.0 1.0 0.0
  outer loop
    vertex 36.93933982822018 3.9999999999999996 4.939339828220178
    vertex 36.17000638962515 3.9999999999999996 0.0
    vertex 36.70096189432334 3.9999999999999996 5.249999999999999
  endloop
endfacet
facet normal 0.0 1.0 0.0
  outer loop
    vertex 36.70096189432334 3.9999999999999996 5.249999999999999
    vertex 36.17000638962515 3.9999999999999996 0.0
    vertex 36.551111260566394 3.9999999999999996 5.611771432346219
  endloop
endfacet
facet normal 0.0 1.0 0.0
  outer loop
    vertex 36.551111260566394 3.9999999999999996 5.611771432346219
    vertex 36.17000638962515 3.9999999999999996 0.0
    vertex 36.5 3.9999999999999996 6.0
  endloop
endfacet
facet normal 0.0 1.0 0.0
  outer loop
    vertex 36.5 3.9999999999999996 6.0
    vertex 36.17000638962515 3.9999999999999996 0.0
    vertex 36.17000638962515 3.9999999999999996 12.0
  endloop
endfacet
facet normal 0.0 1.0 0.0
  outer loop
    vertex 42.0 3.9999999999999996 0.0
    vertex 36.93933982822018 3.9999999999999996 4.939339828220178
    vertex 37.25 3.9999999999999996 4.70096189432334
  endloop
endfacet
facet normal 0.0 1.0 0.0
  outer loop
    vertex 42.0 3.9999999999999996 0.0
    vertex 37.25 3.9999999999999996 4.70096189432334
    vertex 37.61177143234622 3.9999999999999996 4.551111260566395
  endloop
endfacet
facet normal 0.0 1.0 0.0
  outer loop
    vertex 42.0 3.9999999999999996 0.0
    vertex 37.61177143234622 3.9999999999999996 4.551111260566395
    vertex 38.00000000000001 3.9999999999999996 4.499999999999997
  endloop
endfacet
facet normal 0.0 1.0 0.0
  outer loop
    vertex 36.5 3.9999999999999996 6.0
    vertex 36.17000638962515 3.9999999999999996 12.0
    vertex 36.5511112605664 3.9999999999999996 6.388228567653783
  endloop
endfacet
facet normal 0.0 1.0 0.0
  outer loop
    vertex 36.5511112605664 3.9999999999999996 6.388228567653783
    vertex 36.17000638962515 3.9999999999999996 12.0
    vertex 36.70096189432334 3.9999999999999996 6.750000000000002
  endloop
endfacet
facet normal 0.0 1.0 0.0
  outer loop
    vertex 36.70096189432334 3.9999999999999996 6.750000000000002
    vertex 36.17000638962515 3.9999999999999996 12.0
    vertex 36.93933982822018 3.9999999999999996 7.0606601717798245
  endloop
endfacet
facet normal 0.0 1.0 0.0
  outer loop
    vertex 36.93933982822018 3.9999999999999996 7.0606601717798245
    vertex 36.17000638962515 3.9999999999999996 12.0
    vertex 37.25000000000001 3.9999999999999996 7.299038105676661
  endloop
endfacet
facet normal 0.0 1.0 0.0
  outer loop
    vertex 37.25000000000001 3.9999999999999996 7.299038105676661
    vertex 36.17000638962515 3.9999999999999996 12.0
    vertex 37.61177143234622 3.9999999999999996 7.448888739433605
  endloop
endfacet
facet normal 0.0 1.0 0.0
  outer loop
    vertex 37.61177143234622 3.9999999999999996 7.448888739433605
    vertex 36.17000638962515 3.9999999999999996 12.0
    vertex 38.00000000000001 3.9999999999999996 7.5000000000000036
  endloop
endfacet
facet normal 0.0 1.0 0.0
  outer loop
    vertex 42.0 3.9999999999999996 0.0
    vertex 39.448888739433606 3.9999999999999996 5.611771432346218
    vertex 42.0 3.9999999999999996 12.0
  endloop
endfacet
facet normal 0.0 1.0 0.0
  outer loop
    vertex 39.448888739433606 3.9999999999999996 5.611771432346218
    vertex 42.0 3.9999999999999996 0.0
    vertex 39.299038105676665 3.9999999999999996 5.249999999999998
  endloop
endfacet
facet normal 0.0 1.0 0.0
  outer loop
    vertex 39.299038105676665 3.9999999999999996 5.249999999999998
    vertex 42.0 3.9999999999999996 0.0
    vertex 39.06066017177983 3.9999999999999996 4.939339828220176
  endloop
endfacet
facet normal 0.0 1.0 0.0
  outer loop
    vertex 39.06066017177983 3.9999999999999996 4.939339828220176
    vertex 42.0 3.9999999999999996 0.0
    vertex 38.75 3.9999999999999996 4.700961894323339
  endloop
endfacet
facet normal 0.0 1.0 0.0
  outer loop
    vertex 38.75 3.9999999999999996 4.700961894323339
    vertex 42.0 3.9999999999999996 0.0
    vertex 38.38822856765378 3.9999999999999996 4.551111260566395
  endloop
endfacet
facet normal 0.0 1.0 0.0
  outer loop
    vertex 38.38822856765378 3.9999999999999996 4.551111260566395
    vertex 42.0 3.9999999999999996 0.0
    vertex 38.00000000000001 3.9999999999999996 4.499999999999997
  endloop
endfacet
facet normal 0.0 1.0 0.0
  outer loop
    vertex 42.0 3.9999999999999996 12.0
    vertex 39.448888739433606 3.9999999999999996 5.611771432346218
    vertex 39.50000000000001 3.9999999999999996 6.0
  endloop
endfacet
facet normal 0.0 1.0 0.0
  outer loop
    vertex 42.0 3.9999999999999996 12.0
    vertex 39.50000000000001 3.9999999999999996 6.0
    vertex 39.448888739433606 3.9999999999999996 6.3882285676537816
  endloop
endfacet
facet normal 0.0 1.0 0.0
  outer loop
    vertex 42.0 3.9999999999999996 12.0
    vertex 39.448888739433606 3.9999999999999996 6.3882285676537816
    vertex 39.299038105676665 3.9999999999999996 6.750000000000002
  endloop
endfacet
facet normal 0.0 1.0 0.0
  outer loop
    vertex 42.0 3.9999999999999996 12.0
    vertex 39.299038105676665 3.9999999999999996 6.750000000000002
    vertex 39.06066017177983 3.9999999999999996 7.0606601717798245
  endloop
endfacet
facet normal 0.0 1.0 0.0
  outer loop
    vertex 42.0 3.9999999999999996 12.0
    vertex 39.06066017177983 3.9999999999999996 7.0606601717798245
    vertex 38.75000000000001 3.9999999999999996 7.299038105676661
  endloop
endfacet
facet normal 0.0 1.0 0.0
  outer loop
    vertex 42.0 3.9999999999999996 12.0
    vertex 38.75000000000001 3.9999999999999996 7.299038105676661
    vertex 38.38822856765379 3.9999999999999996 7.448888739433605
  endloop
endfacet
facet normal 0.0 1.0 0.0
  outer loop
    vertex 42.0 3.9999999999999996 12.0
    vertex 38.38822856765379 3.9999999999999996 7.448888739433605
    vertex 38.00000000000001 3.9999999999999996 7.5000000000000036
  endloop
endfacet
facet normal 0.0 1.0 0.0
  outer loop
    vertex 42.0 3.9999999999999996 12.0
    vertex 38.00000000000001 3.9999999999999996 7.5000000000000036
    vertex 36.17000638962515 3.9999999999999996 12.0
  endloop
endfacet
facet normal 0.0 1.0 0.0
  outer loop
    vertex 0.0 3.9999999999999996 0.0
    vertex 2.768966138251117 3.9999999999999996 5.142937790339795
    vertex 5.829993610374849 3.9999999999999996 0.0
  endloop
endfacet
facet normal 0.0 1.0 0.0
  outer loop
    vertex 2.768966138251117 3.9999999999999996 5.142937790339795
    vertex 0.0 3.9999999999999996 0.0
    vertex 2.5890885772026766 3.9999999999999996 5.4907564855395465
  endloop
endfacet
facet normal 0.0 1.0 0.0
  outer loop
    vertex 2.5890885772026766 3.9999999999999996 5.4907564855395465
    vertex 0.0 3.9999999999999996 0.0
    vertex 0.0 3.9999999999999996 12.0
  endloop
endfacet
facet normal 0.0 1.0 0.0
  outer loop
    vertex 5.829993610374849 3.9999999999999996 0.0
    vertex 2.768966138251117 3.9999999999999996 5.142937790339795
    vertex 3.032736622598098 3.9999999999999996 4.853526468366117
  endloop
endfacet
facet normal 0.0 1.0 0.0
  outer loop
    vertex 5.829993610374849 3.9999999999999996 0.0
    vertex 3.032736622598098 3.9999999999999996 4.853526468366117
    vertex 3.362424507636709 3.9999999999999996 4.642245422936197
  endloop
endfacet
facet normal 0.0 1.0 0.0
  outer loop
    vertex 5.829993610374849 3.9999999999999996 0.0
    vertex 3.362424507636709 3.9999999999999996 4.642245422936197
    vertex 3.735562108836559 3.9999999999999996 4.523493108137645
  endloop
endfacet
facet normal 0.0 1.0 0.0
  outer loop
    vertex 5.829993610374849 3.9999999999999996 0.0
    vertex 3.735562108836559 3.9999999999999996 4.523493108137645
    vertex 4.12672071531492 3.9999999999999996 4.505362297976505
  endloop
endfacet
facet normal 0.0 1.0 0.0
  outer loop
    vertex 2.5890885772026766 3.9999999999999996 5.4907564855395465
    vertex 0.0 3.9999999999999996 12.0
    vertex 2.5053622979765042 3.9999999999999996 5.873279284685079
  endloop
endfacet
facet normal 0.0 1.0 0.0
  outer loop
    vertex 2.5053622979765042 3.9999999999999996 5.873279284685079
    vertex 0.0 3.9999999999999996 12.0
    vertex 2.5112360003437963 3.9999999999999996 6.0
  endloop
endfacet
facet normal 0.0 1.0 0.0
  outer loop
    vertex 2.5112360003437963 3.9999999999999996 6.0
    vertex 0.0 3.9999999999999996 12.0
    vertex 2.5234931081376444 3.9999999999999996 6.26443789116344
  endloop
endfacet
facet normal 0.0 1.0 0.0
  outer loop
    vertex 2.5234931081376444 3.9999999999999996 6.26443789116344
    vertex 0.0 3.9999999999999996 12.0
    vertex 2.6422454229361962 3.9999999999999996 6.637575492363291
  endloop
endfacet
facet normal 0.0 1.0 0.0
  outer loop
    vertex 2.6422454229361962 3.9999999999999996 6.637575492363291
    vertex 0.0 3.9999999999999996 12.0
    vertex 2.853526468366117 3.9999999999999996 6.967263377401901
  endloop
endfacet
facet normal 0.0 1.0 0.0
  outer loop
    vertex 2.853526468366117 3.9999999999999996 6.967263377401901
    vertex 0.0 3.9999999999999996 12.0
    vertex 3.142937790339795 3.9999999999999996 7.231033861748883
  endloop
endfacet
facet normal 0.0 1.0 0.0
  outer loop
    vertex 3.142937790339795 3.9999999999999996 7.231033861748883
    vertex 0.0 3.9999999999999996 12.0
    vertex 3.490756485539547 3.9999999999999996 7.410911422797323
  endloop
endfacet
facet normal 0.0 1.0 0.0
  outer loop
    vertex 3.490756485539547 3.9999999999999996 7.410911422797323
    vertex 0.0 3.9999999999999996 12.0
    vertex 3.8732792846850796 3.9999999999999996 7.494637702023496
  endloop
endfacet
facet normal 0.0 1.0 0.0
  outer loop
    vertex 5.829993610374849 3.9999999999999996 0.0
    vertex 5.476506891862355 3.9999999999999996 5.735562108836559
    vertex 5.829993610374849 3.9999999999999996 12.0
  endloop
endfacet
facet normal 0.0 1.0 0.0
  outer loop
    vertex 5.476506891862355 3.9999999999999996 5.735562108836559
    vertex 5.829993610374849 3.9999999999999996 0.0
    vertex 5.357754577063803 3.9999999999999996 5.362424507636709
  endloop
endfacet
facet normal 0.0 1.0 0.0
  outer loop
    vertex 5.357754577063803 3.9999999999999996 5.362424507636709
    vertex 5.829993610374849 3.9999999999999996 0.0
    vertex 5.146473531633882 3.9999999999999996 5.032736622598098
  endloop
endfacet
facet normal 0.0 1.0 0.0
  outer loop
    vertex 5.146473531633882 3.9999999999999996 5.032736622598098
    vertex 5.829993610374849 3.9999999999999996 0.0
    vertex 4.857062209660205 3.9999999999999996 4.768966138251118
  endloop
endfacet
facet normal 0.0 1.0 0.0
  outer loop
    vertex 4.857062209660205 3.9999999999999996 4.768966138251118
    vertex 5.829993610374849 3.9999999999999996 0.0
    vertex 4.5092435144604535 3.9999999999999996 4.589088577202677
  endloop
endfacet
facet normal 0.0 1.0 0.0
  outer loop
    vertex 4.5092435144604535 3.9999999999999996 4.589088577202677
    vertex 5.829993610374849 3.9999999999999996 0.0
    vertex 4.12672071531492 3.9999999999999996 4.505362297976505
  endloop
endfacet
facet normal 0.0 1.0 0.0
  outer loop
    vertex 5.829993610374849 3.9999999999999996 12.0
    vertex 5.476506891862355 3.9999999999999996 5.735562108836559
    vertex 5.494637702023495 3.9999999999999996 6.126720715314921
  endloop
endfacet
facet normal 0.0 1.0 0.0
  outer loop
    vertex 5.829993610374849 3.9999999999999996 12.0
    vertex 5.494637702023495 3.9999999999999996 6.126720715314921
    vertex 5.410911422797324 3.9999999999999996 6.5092435144604535
  endloop
endfacet
facet normal 0.0 1.0 0.0
  outer loop
    vertex 5.829993610374849 3.9999999999999996 12.0
    vertex 5.410911422797324 3.9999999999999996 6.5092435144604535
    vertex 5.231033861748882 3.9999999999999996 6.857062209660206
  endloop
endfacet
facet normal 0.0 1.0 0.0
  outer loop
    vertex 5.829993610374849 3.9999999999999996 12.0
    vertex 5.231033861748882 3.9999999999999996 6.857062209660206
    vertex 4.967263377401902 3.9999999999999996 7.146473531633883
  endloop
endfacet
facet normal 0.0 1.0 0.0
  outer loop
    vertex 5.829993610374849 3.9999999999999996 12.0
    vertex 4.967263377401902 3.9999999999999996 7.146473531633883
    vertex 4.6375754923632915 3.9999999999999996 7.357754577063803
  endloop
endfacet
facet normal 0.0 1.0 0.0
  outer loop
    vertex 5.829993610374849 3.9999999999999996 12.0
    vertex 4.6375754923632915 3.9999999999999996 7.357754577063803
    vertex 4.264437891163441 3.9999999999999996 7.476506891862355
  endloop
endfacet
facet normal 0.0 1.0 0.0
  outer loop
    vertex 5.829993610374849 3.9999999999999996 12.0
    vertex 4.264437891163441 3.9999999999999996 7.476506891862355
    vertex 3.8732792846850796 3.9999999999999996 7.494637702023496
  endloop
endfacet
facet normal 0.0 1.0 0.0
  outer loop
    vertex 5.829993610374849 3.9999999999999996 12.0
    vertex 3.8732792846850796 3.9999999999999996 7.494637702023496
    vertex 0.0 3.9999999999999996 12.0
  endloop
endfacet
facet normal -0.9914448613738105 -0.13052619222005096 -0.0
  outer loop
    vertex 8.000000000000002 13.000000000000002 12.0
    vertex 8.442964258242112 9.635352413667233 0.0
    vertex 8.442964258242112 9.635352413667233 12.0
  endloop
endfacet
facet normal -0.9914448613738105 -0.13052619222005096 -0.0
  outer loop
    vertex 8.442964258242112 9.635352413667233 0.0
    vertex 8.000000000000002 13.000000000000002 12.0
    vertex 8.000000000000002 13.000000000000002 0.0
  endloop
endfacet
facet normal 0.3826834323650908 0.9238795325112865 0.0
  outer loop
    vertex 16.499999999999996 5.205771365940055 12.0
    vertex 18.670628594077307 4.306667563398387 0.0
    vertex 16.499999999999996 5.205771365940055 0.0
  endloop
endfacet
facet normal 0.3826834323650908 0.9238795325112865 0.0
  outer loop
    vertex 18.670628594077307 4.306667563398387 0.0
    vertex 16.499999999999996 5.205771365940055 12.0
    vertex 18.670628594077307 4.306667563398387 12.0
  endloop
endfacet
facet normal 0.13052619222005196 0.9914448613738105 0.0
  outer loop
    vertex 18.670628594077307 4.306667563398387 12.0
    vertex 21.0 3.9999999999999996 0.0
    vertex 18.670628594077307 4.306667563398387 0.0
  endloop
endfacet
facet normal 0.13052619222005196 0.9914448613738105 0.0
  outer loop
    vertex 21.0 3.9999999999999996 0.0
    vertex 18.670628594077307 4.306667563398387 12.0
    vertex 21.0 3.9999999999999996 12.0
  endloop
endfacet
facet normal -0.13052619222005185 0.9914448613738105 0.0
  outer loop
    vertex 21.0 3.9999999999999996 12.0
    vertex 23.329371405922686 4.306667563398386 0.0
    vertex 21.0 3.9999999999999996 0.0
  endloop
endfacet
facet normal -0.13052619222005185 0.9914448613738105 0.0
  outer loop
    vertex 23.329371405922686 4.306667563398386 0.0
    vertex 21.0 3.9999999999999996 12.0
    vertex 23.329371405922686 4.306667563398386 12.0
  endloop
endfacet
facet normal 0.9914448613738106 0.13052619222005127 0.0
  outer loop
    vertex 12.000000000000002 13.000000000000002 0.0
    vertex 12.306667563398387 10.670628594077316 12.0
    vertex 12.306667563398387 10.670628594077316 0.0
  endloop
endfacet
facet normal 0.9914448613738106 0.13052619222005127 0.0
  outer loop
    vertex 12.306667563398387 10.670628594077316 12.0
    vertex 12.000000000000002 13.000000000000002 0.0
    vertex 12.000000000000002 13.000000000000002 12.0
  endloop
endfacet
facet normal -0.60876142900872 0.7933533402912357 0.0
  outer loop
    vertex 25.5 5.205771365940052 12.0
    vertex 27.36396103067893 6.636038969321071 0.0
    vertex 25.5 5.205771365940052 0.0
  endloop
endfacet
facet normal -0.60876142900872 0.7933533402912357 0.0
  outer loop
    vertex 27.36396103067893 6.636038969321071 0.0
    vertex 25.5 5.205771365940052 12.0
    vertex 27.36396103067893 6.636038969321071 12.0
  endloop
endfacet
facet normal 0.0 0.0 1.0
  outer loop
    vertex 8.442964258242112 9.635352413667233 12.0
    vertex 8.442964258242117 16.36464758633278 12.0
    vertex 8.000000000000002 13.000000000000002 12.0
  endloop
endfacet
facet normal 0.0 0.0 1.0
  outer loop
    vertex 8.442964258242117 16.36464758633278 12.0
    vertex 8.442964258242112 9.635352413667233 12.0
    vertex 9.741669750802297 6.5000000000000036 12.0
  endloop
endfacet
facet normal 0.0 0.0 1.0
  outer loop
    vertex 8.442964258242117 16.36464758633278 12.0
    vertex 9.741669750802297 6.5000000000000036 12.0
    vertex 9.741669750802304 19.500000000000007 12.0
  endloop
endfacet
facet normal 0.0 0.0 1.0
  outer loop
    vertex 32.2583302491977 6.499999999999992 12.0
    vertex 32.258330249197705 19.499999999999993 12.0
    vertex 30.192388155425125 22.192388155425107 12.0
  endloop
endfacet
facet normal 0.0 0.0 1.0
  outer loop
    vertex 32.258330249197705 19.499999999999993 12.0
    vertex 32.2583302491977 6.499999999999992 12.0
    vertex 33.557035741757886 9.635352413667222 12.0
  endloop
endfacet
facet normal 0.0 0.0 1.0
  outer loop
    vertex 32.258330249197705 19.499999999999993 12.0
    vertex 33.557035741757886 9.635352413667222 12.0
    vertex 33.55703574175789 16.36464758633276 12.0
  endloop
endfacet
facet normal 0.0 0.0 1.0
  outer loop
    vertex 33.55703574175789 16.36464758633276 12.0
    vertex 33.557035741757886 9.635352413667222 12.0
    vertex 34.0 12.999999999999993 12.0
  endloop
endfacet
facet normal 0.0 0.0 1.0
  outer loop
    vertex 42.0 0.0 12.0
    vertex 0.0 3.9999999999999996 12.0
    vertex 0.0 0.0 12.0
  endloop
endfacet
facet normal 0.0 0.0 1.0
  outer loop
    vertex 0.0 3.9999999999999996 12.0
    vertex 42.0 0.0 12.0
    vertex 5.829993610374849 3.9999999999999996 12.0
  endloop
endfacet
facet normal 0.0 0.0 1.0
  outer loop
    vertex 5.829993610374849 3.9999999999999996 12.0
    vertex 42.0 0.0 12.0
    vertex 18.670628594077307 4.306667563398387 12.0
  endloop
endfacet
facet normal 0.0 0.0 1.0
  outer loop
    vertex 5.829993610374849 3.9999999999999996 12.0
    vertex 18.670628594077307 4.306667563398387 12.0
    vertex 9.741669750802297 6.5000000000000036 12.0
  endloop
endfacet
facet normal 0.0 0.0 1.0
  outer loop
    vertex 9.741669750802297 6.5000000000000036 12.0
    vertex 18.670628594077307 4.306667563398387 12.0
    vertex 16.499999999999996 5.205771365940055 12.0
  endloop
endfacet
facet normal 0.0 0.0 1.0
  outer loop
    vertex 9.741669750802297 6.5000000000000036 12.0
    vertex 16.499999999999996 5.205771365940055 12.0
    vertex 14.636038969321074 6.636038969321073 12.0
  endloop
endfacet
facet normal 0.0 0.0 1.0
  outer loop
    vertex 9.741669750802297 6.5000000000000036 12.0
    vertex 14.636038969321074 6.636038969321073 12.0
    vertex 13.205771365940048 8.500000000000005 12.0
  endloop
endfacet
facet normal 0.0 0.0 1.0
  outer loop
    vertex 9.741669750802297 6.5000000000000036 12.0
    vertex 13.205771365940048 8.500000000000005 12.0
    vertex 12.306667563398387 10.670628594077316 12.0
  endloop
endfacet
facet normal 0.0 0.0 1.0
  outer loop
    vertex 9.741669750802297 6.5000000000000036 12.0
    vertex 12.306667563398387 10.670628594077316 12.0
    vertex 9.741669750802304 19.500000000000007 12.0
  endloop
endfacet
facet normal 0.0 0.0 1.0
  outer loop
    vertex 9.741669750802304 19.500000000000007 12.0
    vertex 12.306667563398387 10.670628594077316 12.0
    vertex 12.000000000000002 13.000000000000002 12.0
  endloop
endfacet
facet normal 0.0 0.0 1.0
  outer loop
    vertex 9.741669750802304 19.500000000000007 12.0
    vertex 12.000000000000002 13.000000000000002 12.0
    vertex 11.807611844574888 22.19238815542512 12.0
  endloop
endfacet
facet normal 0.0 0.0 1.0
  outer loop
    vertex 18.670628594077307 4.306667563398387 12.0
    vertex 42.0 0.0 12.0
    vertex 21.0 3.9999999999999996 12.0
  endloop
endfacet
facet normal 0.0 0.0 1.0
  outer loop
    vertex 21.0 3.9999999999999996 12.0
    vertex 42.0 0.0 12.0
    vertex 23.329371405922686 4.306667563398386 12.0
  endloop
endfacet
facet normal 0.0 0.0 1.0
  outer loop
    vertex 23.329371405922686 4.306667563398386 12.0
    vertex 42.0 0.0 12.0
    vertex 25.5 5.205771365940052 12.0
  endloop
endfacet
facet normal 0.0 0.0 1.0
  outer loop
    vertex 25.5 5.205771365940052 12.0
    vertex 42.0 0.0 12.0
    vertex 27.36396103067893 6.636038969321071 12.0
  endloop
endfacet
facet normal 0.0 0.0 1.0
  outer loop
    vertex 27.36396103067893 6.636038969321071 12.0
    vertex 42.0 0.0 12.0
    vertex 28.794228634059948 8.499999999999998 12.0
  endloop
endfacet
facet normal 0.0 0.0 1.0
  outer loop
    vertex 28.794228634059948 8.499999999999998 12.0
    vertex 42.0 0.0 12.0
    vertex 32.2583302491977 6.499999999999992 12.0
  endloop
endfacet
facet normal 0.0 0.0 1.0
  outer loop
    vertex 28.794228634059948 8.499999999999998 12.0
    vertex 32.2583302491977 6.499999999999992 12.0
    vertex 29.693332436601615 10.67062859407731 12.0
  endloop
endfacet
facet normal 0.0 0.0 1.0
  outer loop
    vertex 29.693332436601615 10.67062859407731 12.0
    vertex 32.2583302491977 6.499999999999992 12.0
    vertex 30.0 12.999999999999998 12.0
  endloop
endfacet
facet normal 0.0 0.0 1.0
  outer loop
    vertex 30.0 12.999999999999998 12.0
    vertex 32.2583302491977 6.499999999999992 12.0
    vertex 30.192388155425125 22.192388155425107 12.0
  endloop
endfacet
facet normal 0.0 0.0 1.0
  outer loop
    vertex 32.2583302491977 6.499999999999992 12.0
    vertex 42.0 0.0 12.0
    vertex 36.17000638962515 3.9999999999999996 12.0
  endloop
endfacet
facet normal 0.0 0.0 1.0
  outer loop
    vertex 36.17000638962515 3.9999999999999996 12.0
    vertex 42.0 0.0 12.0
    vertex 42.0 3.9999999999999996 12.0
  endloop
endfacet
facet normal 0.0 0.0 1.0
  outer loop
    vertex 28.794228634059948 17.499999999999996 12.0
    vertex 30.192388155425125 22.192388155425107 12.0
    vertex 27.36396103067893 19.363961030678926 12.0
  endloop
endfacet
facet normal 0.0 0.0 1.0
  outer loop
    vertex 30.192388155425125 22.192388155425107 12.0
    vertex 28.794228634059948 17.499999999999996 12.0
    vertex 29.693332436601615 15.329371405922684 12.0
  endloop
endfacet
facet normal 0.0 0.0 1.0
  outer loop
    vertex 30.192388155425125 22.192388155425107 12.0
    vertex 29.693332436601615 15.329371405922684 12.0
    vertex 30.0 12.999999999999998 12.0
  endloop
endfacet
facet normal 0.0 0.0 1.0
  outer loop
    vertex 11.807611844574888 22.19238815542512 12.0
    vertex 13.205771365940057 17.5 12.0
    vertex 14.636038969321078 19.36396103067893 12.0
  endloop
endfacet
facet normal 0.0 0.0 1.0
  outer loop
    vertex 13.205771365940057 17.5 12.0
    vertex 11.807611844574888 22.19238815542512 12.0
    vertex 12.306667563398388 15.329371405922693 12.0
  endloop
endfacet
facet normal 0.0 0.0 1.0
  outer loop
    vertex 12.306667563398388 15.329371405922693 12.0
    vertex 11.807611844574888 22.19238815542512 12.0
    vertex 12.000000000000002 13.000000000000002 12.0
  endloop
endfacet
facet normal 0.9238795325112865 -0.38268343236509045 0.0
  outer loop
    vertex 33.557035741757886 9.635352413667222 0.0
    vertex 32.2583302491977 6.499999999999992 12.0
    vertex 32.2583302491977 6.499999999999992 0.0
  endloop
endfacet
facet normal 0.9238795325112865 -0.38268343236509045 0.0
  outer loop
    vertex 32.2583302491977 6.499999999999992 12.0
    vertex 33.557035741757886 9.635352413667222 0.0
    vertex 33.557035741757886 9.635352413667222 12.0
  endloop
endfacet
facet normal -0.5385229014094548 0.8426108738068495 0.0
  outer loop
    vertex 5.829993610374849 3.9999999999999996 12.0
    vertex 9.741669750802297 6.5000000000000036 0.0
    vertex 5.829993610374849 3.9999999999999996 0.0
  endloop
endfacet
facet normal -0.5385229014094548 0.8426108738068495 0.0
  outer loop
    vertex 9.741669750802297 6.5000000000000036 0.0
    vertex 5.829993610374849 3.9999999999999996 12.0
    vertex 9.741669750802297 6.5000000000000036 12.0
  endloop
endfacet
facet normal -0.7071067811865458 0.7071067811865493 0.0
  outer loop
    vertex 27.36396103067893 19.363961030678926 12.0
    vertex 30.192388155425125 22.192388155425107 0.0
    vertex 27.36396103067893 19.363961030678926 0.0
  endloop
endfacet
facet normal -0.7071067811865458 0.7071067811865493 0.0
  outer loop
    vertex 30.192388155425125 22.192388155425107 0.0
    vertex 27.36396103067893 19.363961030678926 12.0
    vertex 30.192388155425125 22.192388155425107 12.0
  endloop
endfacet
facet normal 0.7933533402912357 0.6087614290087201 0.0
  outer loop
    vertex 30.192388155425125 22.192388155425107 0.0
    vertex 32.258330249197705 19.499999999999993 12.0
    vertex 32.258330249197705 19.499999999999993 0.0
  endloop
endfacet
facet normal 0.7933533402912357 0.6087614290087201 0.0
  outer loop
    vertex 32.258330249197705 19.499999999999993 12.0
    vertex 30.192388155425125 22.192388155425107 0.0
    vertex 30.192388155425125 22.192388155425107 12.0
  endloop
endfacet
facet normal 0.9914448613738107 0.1305261922200502 0.0
  outer loop
    vertex 33.55703574175789 16.36464758633276 0.0
    vertex 34.0 12.999999999999993 12.0
    vertex 34.0 12.999999999999993 0.0
  endloop
endfacet
facet normal 0.9914448613738107 0.1305261922200502 0.0
  outer loop
    vertex 34.0 12.999999999999993 12.0
    vertex 33.55703574175789 16.36464758633276 0.0
    vertex 33.55703574175789 16.36464758633276 12.0
  endloop
endfacet
facet normal -0.7933533402912354 -0.6087614290087203 -0.0
  outer loop
    vertex 27.36396103067893 19.363961030678926 12.0
    vertex 28.794228634059948 17.499999999999996 0.0
    vertex 28.794228634059948 17.499999999999996 12.0
  endloop
endfacet
facet normal -0.7933533402912354 -0.6087614290087203 -0.0
  outer loop
    vertex 28.794228634059948 17.499999999999996 0.0
    vertex 27.36396103067893 19.363961030678926 12.0
    vertex 27.36396103067893 19.363961030678926 0.0
  endloop
endfacet
facet normal 0.9238795325112865 0.3826834323650903 0.0
  outer loop
    vertex 32.258330249197705 19.499999999999993 0.0
    vertex 33.55703574175789 16.36464758633276 12.0
    vertex 33.55703574175789 16.36464758633276 0.0
  endloop
endfacet
facet normal 0.9238795325112865 0.3826834323650903 0.0
  outer loop
    vertex 33.55703574175789 16.36464758633276 12.0
    vertex 32.258330249197705 19.499999999999993 0.0
    vertex 32.258330249197705 19.499999999999993 12.0
  endloop
endfacet
facet normal -0.9238795325112865 -0.3826834323650903 -0.0
  outer loop
    vertex 28.794228634059948 17.499999999999996 12.0
    vertex 29.693332436601615 15.329371405922684 0.0
    vertex 29.693332436601615 15.329371405922684 12.0
  endloop
endfacet
facet normal -0.9238795325112865 -0.3826834323650903 -0.0
  outer loop
    vertex 29.693332436601615 15.329371405922684 0.0
    vertex 28.794228634059948 17.499999999999996 12.0
    vertex 28.794228634059948 17.499999999999996 0.0
  endloop
endfacet
facet normal 0.9914448613738104 -0.1305261922200517 0.0
  outer loop
    vertex 34.0 12.999999999999993 0.0
    vertex 33.557035741757886 9.635352413667222 12.0
    vertex 33.557035741757886 9.635352413667222 0.0
  endloop
endfacet
facet normal 0.9914448613738104 -0.1305261922200517 0.0
  outer loop
    vertex 33.557035741757886 9.635352413667222 12.0
    vertex 34.0 12.999999999999993 0.0
    vertex 34.0 12.999999999999993 12.0
  endloop
endfacet
endsolid Untitled-55dc69c1
